HIERARCHY
ROOT Hips
{
  OFFSET 5.84602e-005 68.8428 3.50346
  CHANNELS 6 Xposition Yposition Zposition Zrotation Xrotation Yrotation
  JOINT Spine
  {
    OFFSET 0 8.597 -4.6522
    CHANNELS 3 Zrotation Xrotation Yrotation
    JOINT Spine1
    {
      OFFSET 0 7.8454 0.4098
      CHANNELS 3 Zrotation Xrotation Yrotation
      JOINT Spine2
      {
        OFFSET 0 9.7078 -2.1609
        CHANNELS 3 Zrotation Xrotation Yrotation
        JOINT Neck
        {
          OFFSET 0 21.8761 -0.4549
          CHANNELS 3 Zrotation Xrotation Yrotation
          JOINT Head
          {
            OFFSET 0 12.3537 3.3602
            CHANNELS 3 Zrotation Xrotation Yrotation
            End Site
            {
              OFFSET 0.0001 18.9506 0.5657
            }
          }
        }
        JOINT LeftShoulder
        {
          OFFSET 2.2086 21.1115 7.2329
          CHANNELS 3 Zrotation Xrotation Yrotation
          JOINT LeftArm
          {
            OFFSET 13.1193 3.0282 -4.8998
            CHANNELS 3 Zrotation Xrotation Yrotation
            JOINT LeftForeArm
            {
              OFFSET 27.4081 -0.0973053 -0.2375
              CHANNELS 3 Zrotation Xrotation Yrotation
              JOINT LeftHand
              {
                OFFSET 22.8641 0.0662994 -0.1369
                CHANNELS 3 Zrotation Xrotation Yrotation
                JOINT LeftHandIndex1
                {
                  OFFSET 8.8614 0.775009 2.4612
                  CHANNELS 3 Zrotation Xrotation Yrotation
                  JOINT LeftHandIndex2
                  {
                    OFFSET 3.3146 -0.808304 0.5841
                    CHANNELS 3 Zrotation Xrotation Yrotation
                    JOINT LeftHandIndex3
                    {
                      OFFSET 2.2628 -0.552002 0.3989
                      CHANNELS 3 Zrotation Xrotation Yrotation
                      End Site
                      {
                        OFFSET 1.6102 -0.4807 0.2612
                      }
                    }
                  }
                }
                JOINT LeftHandMiddle1
                {
                  OFFSET 8.9937 0.895004 0.2143
                  CHANNELS 3 Zrotation Xrotation Yrotation
                  JOINT LeftHandMiddle2
                  {
                    OFFSET 4.0984 0.0113983 -0.0242
                    CHANNELS 3 Zrotation Xrotation Yrotation
                    JOINT LeftHandMiddle3
                    {
                      OFFSET 2.2716 0.00689697 -0.0138001
                      CHANNELS 3 Zrotation Xrotation Yrotation
                      End Site
                      {
                        OFFSET 2.0404 -0.1441 0.0027
                      }
                    }
                  }
                }
                JOINT LeftHandRing1
                {
                  OFFSET 8.5234 0.597198 -2.0164
                  CHANNELS 3 Zrotation Xrotation Yrotation
                  JOINT LeftHandRing2
                  {
                    OFFSET 3.7188 -0.188293 -0.2328
                    CHANNELS 3 Zrotation Xrotation Yrotation
                    JOINT LeftHandRing3
                    {
                      OFFSET 2.1191 -0.106598 -0.1332
                      CHANNELS 3 Zrotation Xrotation Yrotation
                      End Site
                      {
                        OFFSET 1.8737 -0.2304 -0.0886
                      }
                    }
                  }
                }
                JOINT LeftHandPinky1
                {
                  OFFSET 7.9094 -0.601089 -3.4825
                  CHANNELS 3 Zrotation Xrotation Yrotation
                  JOINT LeftHandPinky2
                  {
                    OFFSET 2.2874 -0.477005 -0.6314
                    CHANNELS 3 Zrotation Xrotation Yrotation
                    JOINT LeftHandPinky3
                    {
                      OFFSET 1.6774 -0.349396 -0.4633
                      CHANNELS 3 Zrotation Xrotation Yrotation
                      End Site
                      {
                        OFFSET 1.4888 -0.4091 -0.3416
                      }
                    }
                  }
                }
                JOINT LeftHandThumb1
                {
                  OFFSET 1.833 -1.3875 1.3896
                  CHANNELS 3 Zrotation Xrotation Yrotation
                  JOINT LeftHandThumb2
                  {
                    OFFSET 3.4129 -1.121 2.5732
                    CHANNELS 3 Zrotation Xrotation Yrotation
                    JOINT LeftHandThumb3
                    {
                      OFFSET 2.2474 -0.804199 1.6192
                      CHANNELS 3 Zrotation Xrotation Yrotation
                      End Site
                      {
                        OFFSET 1.6527 -0.5689 1.1317
                      }
                    }
                  }
                }
              }
            }
          }
        }
        JOINT RightShoulder
        {
          OFFSET -2.2086 21.1115 7.2329
          CHANNELS 3 Zrotation Xrotation Yrotation
          JOINT RightArm
          {
            OFFSET -13.1216 3.0287 -4.9007
            CHANNELS 3 Zrotation Xrotation Yrotation
            JOINT RightForeArm
            {
              OFFSET -27.4081 -0.0973053 -0.2375
              CHANNELS 3 Zrotation Xrotation Yrotation
              JOINT RightHand
              {
                OFFSET -22.8641 0.0664063 -0.1369
                CHANNELS 3 Zrotation Xrotation Yrotation
                JOINT RightHandIndex1
                {
                  OFFSET -8.8614 0.774994 2.4612
                  CHANNELS 3 Zrotation Xrotation Yrotation
                  JOINT RightHandIndex2
                  {
                    OFFSET -3.3146 -0.808304 0.5841
                    CHANNELS 3 Zrotation Xrotation Yrotation
                    JOINT RightHandIndex3
                    {
                      OFFSET -2.2628 -0.552002 0.3989
                      CHANNELS 3 Zrotation Xrotation Yrotation
                      End Site
                      {
                        OFFSET -1.6102 -0.4807 0.2612
                      }
                    }
                  }
                }
                JOINT RightHandMiddle1
                {
                  OFFSET -8.9937 0.894989 0.2143
                  CHANNELS 3 Zrotation Xrotation Yrotation
                  JOINT RightHandMiddle2
                  {
                    OFFSET -4.0984 0.0113983 -0.0242
                    CHANNELS 3 Zrotation Xrotation Yrotation
                    JOINT RightHandMiddle3
                    {
                      OFFSET -2.2716 0.00691223 -0.0138001
                      CHANNELS 3 Zrotation Xrotation Yrotation
                      End Site
                      {
                        OFFSET -2.0404 -0.1441 0.0027
                      }
                    }
                  }
                }
                JOINT RightHandRing1
                {
                  OFFSET -8.5234 0.597198 -2.0164
                  CHANNELS 3 Zrotation Xrotation Yrotation
                  JOINT RightHandRing2
                  {
                    OFFSET -3.7188 -0.188309 -0.2328
                    CHANNELS 3 Zrotation Xrotation Yrotation
                    JOINT RightHandRing3
                    {
                      OFFSET -2.1191 -0.106598 -0.1332
                      CHANNELS 3 Zrotation Xrotation Yrotation
                      End Site
                      {
                        OFFSET -1.8737 -0.2304 -0.0886
                      }
                    }
                  }
                }
                JOINT RightHandPinky1
                {
                  OFFSET -7.9094 -0.601105 -3.4825
                  CHANNELS 3 Zrotation Xrotation Yrotation
                  JOINT RightHandPinky2
                  {
                    OFFSET -2.2874 -0.477005 -0.6314
                    CHANNELS 3 Zrotation Xrotation Yrotation
                    JOINT RightHandPinky3
                    {
                      OFFSET -1.6774 -0.349396 -0.4633
                      CHANNELS 3 Zrotation Xrotation Yrotation
                      End Site
                      {
                        OFFSET -1.4888 -0.4091 -0.3416
                      }
                    }
                  }
                }
                JOINT RightHandThumb1
                {
                  OFFSET -1.833 -1.38751 1.3896
                  CHANNELS 3 Zrotation Xrotation Yrotation
                  JOINT RightHandThumb2
                  {
                    OFFSET -3.41299 -1.12099 2.5732
                    CHANNELS 3 Zrotation Xrotation Yrotation
                    JOINT RightHandThumb3
                    {
                      OFFSET -2.24741 -0.804108 1.6192
                      CHANNELS 3 Zrotation Xrotation Yrotation
                      End Site
                      {
                        OFFSET -1.6527 -0.5689 1.1317
                      }
                    }
                  }
                }
              }
            }
          }
        }
      }
    }
  }
  JOINT RightUpLeg
  {
    OFFSET -9.1966 3.8861 -0.7581
    CHANNELS 3 Zrotation Xrotation Yrotation
    JOINT RightLeg
    {
      OFFSET -0.7359 -41.0265 0
      CHANNELS 3 Zrotation Xrotation Yrotation
      JOINT RightFoot
      {
        OFFSET 0 -40.2855 0
        CHANNELS 3 Zrotation Xrotation Yrotation
        JOINT RightToeBase
        {
          OFFSET 0 -5.6122 11.7359
          CHANNELS 3 Zrotation Xrotation Yrotation
          End Site
          {
            OFFSET 0 0 7.8731
          }
        }
      }
    }
  }
  JOINT LeftUpLeg
  {
    OFFSET 9.1965 3.8864 -0.7581
    CHANNELS 3 Zrotation Xrotation Yrotation
    JOINT LeftLeg
    {
      OFFSET 0.7359 -41.0268 0
      CHANNELS 3 Zrotation Xrotation Yrotation
      JOINT LeftFoot
      {
        OFFSET 0 -40.2855 0
        CHANNELS 3 Zrotation Xrotation Yrotation
        JOINT LeftToeBase
        {
          OFFSET 0 -5.6122 11.7359
          CHANNELS 3 Zrotation Xrotation Yrotation
          End Site
          {
            OFFSET 0 0 7.8731
          }
        }
      }
    }
  }
}
MOTION
Frames:	4
Frame Time:	0.0333333
5.84602e-005 68.8428 3.50346 0 0 -0 0 0 -0 0 0 -0 0 0 -0 0 0 -0 0 0 -0 0 0 -0 0 0 -0 0 0 -0 0 0 -0 0 0 -0 0 0 -0 0 0 -0 0 0 -0 -0.0146107 -8.87603e-005 -2.63497e-007 2.99804e-018 -2.42657e-020 -1.42182e-022 0 0 -0 -0.0187562 -0.001176 5.858e-005 5.06224e-018 3.88251e-019 1.21329e-020 0 0 -0 -0.012269 -0.00324817 0.000675346 -1.74678e-018 3.88251e-019 -0 0 0 -0 0 0 -0 0 0 -0 0 0 -0 0 0 -0 0 0 -0 0 0 -0 0 0 -0 0 0 -0 0 0 -0 0 0 -0 0.0149955 -9.10982e-005 2.64101e-007 -9.69331e-018 1.21329e-020 -4.7394e-023 0 0 -0 0.0189956 -0.00119102 -5.96516e-005 -5.41541e-019 0 2.42657e-020 0 0 -0 0.0122698 -0.00324857 -0.000673756 -2.00796e-019 0 -1.94126e-019 0 0 -0 0 0 -0 0 0 -0 3.39842 1.33031 -0.0637918 -5.65207e-008 0.834868 -0.000436188 -3.39935 -2.16518 -0.0642563 -8.89002e-024 -1.18485e-023 -1.48106e-024 -3.39844 1.35642 0.0640283 -3.18788e-007 0.782166 -0.000588827 3.39931 -2.13858 0.0634662 1.1399e-023 0 -0 
0.0330085 19.3666 1.50774 -180 -40.0083 -180 0.770556 16.1632 -0.511326 1.81472 32.3166 -1.34623 1.81472 32.3166 -1.34623 -3.82733e-005 27.592 2.79807e-005 8.11626e-007 8.11508 6.00406e-008 -10.1077 -0.795305 -8.99638 -47.1387 3.50317 -5.1022 -42.7737 -26.6886 -64.0957 -31.1678 20.7346 9.9277 1.32417e-031 -2.38542e-015 3.18055e-015 -1.59028e-015 -1.59028e-015 -6.36111e-015 -1.59028e-015 -1.59028e-015 -3.18055e-015 1.32417e-031 -2.38542e-015 3.18055e-015 -0.0146587 -8.78675e-005 5.46061e-007 4.77083e-015 -4.77083e-015 3.18055e-015 1.32417e-031 -2.38542e-015 3.18055e-015 -0.0187504 -0.00118103 5.53205e-005 7.06225e-031 -3.18055e-015 1.27222e-014 1.32417e-031 -2.38542e-015 3.18055e-015 -0.0122456 -0.00324116 0.000677607 3.18055e-015 -2.38542e-015 -3.18055e-015 1.32417e-031 -2.38542e-015 3.18055e-015 -1.59028e-015 -1.59028e-015 -6.36111e-015 -1.59028e-015 -1.59028e-015 -3.18055e-015 10.1028 -0.796103 8.9916 47.138 3.50207 5.09964 42.7711 -26.6892 64.0919 31.1617 20.7348 -9.92919 -1.40175e-006 -3.02983e-006 -1.25693e-006 7.95139e-015 -1.59028e-015 -3.18055e-015 -3.34174e-006 -3.04831e-006 -9.6672e-007 -1.40175e-006 -3.02983e-006 -1.25693e-006 0.0150003 -8.7763e-005 -6.01609e-007 -3.33988e-006 -3.04844e-006 -9.66318e-007 -1.40175e-006 -3.02983e-006 -1.25693e-006 0.0189993 -0.00119099 -6.24195e-005 -1.59028e-015 -7.95139e-015 -9.54166e-015 -1.40175e-006 -3.02983e-006 -1.25693e-006 0.0122875 -0.00325277 -0.00067787 -1.40303e-006 -3.02964e-006 -1.2565e-006 -1.40175e-006 -3.02983e-006 -1.25693e-006 7.95139e-015 -1.59028e-015 -3.18055e-015 -3.34174e-006 -3.04831e-006 -9.6672e-007 -120.333 -67.9871 -143.339 67.6198 26.7675 -94.2372 -0.0030905 6.18164 -5.20917 -1.26538e-007 -1.36215e-006 -2.77291e-006 123.499 -68.6817 144.356 -64.3084 14.9882 53.5975 1.10166 6.32553 5.14536 1.76122e-006 2.05442e-006 5.52957e-006 
0.0331971 8.80544 -1.36964 -180 -17.2561 -180 0.929688 18.8056 -0.665526 2.31115 37.5946 -1.83881 2.31115 37.5946 -1.83881 1.96631e-006 32.5316 -3.99058e-006 1.8031e-007 8.29296 7.4639e-007 -11.9981 -0.857704 -10.576 -54.6066 4.03462 -5.92872 -53.725 -23.1234 -74.0076 -37.0736 24.0989 11.6851 -4.77083e-015 0 -0 -3.18055e-015 -3.18055e-015 -6.36111e-015 -4.77083e-015 -3.18055e-015 -6.36111e-015 -4.77083e-015 0 -0 -0.0146108 -8.99201e-005 -6.53206e-007 -9.54166e-015 -6.36111e-015 3.18055e-015 -4.77083e-015 0 -0 -0.0187534 -0.00117351 5.96975e-005 -1.74931e-014 -2.8625e-014 -1.59028e-014 -4.77083e-015 0 -0 -0.0123092 -0.00326534 0.000678625 -4.77083e-015 0 -0 -4.77083e-015 0 -0 -3.18055e-015 -3.18055e-015 -6.36111e-015 -4.77083e-015 -3.18055e-015 -6.36111e-015 12.0138 -0.855989 10.5904 54.5718 4.02761 5.92444 53.714 -23.1515 74.0007 37.104 24.0889 -11.698 -2.42001e-007 2.90169e-006 1.44392e-006 -2.01562e-008 -2.54071e-006 -2.16934e-006 -2.42001e-007 2.90169e-006 1.44392e-006 -2.42001e-007 2.90169e-006 1.44392e-006 0.0149852 -9.08104e-005 -1.00778e-006 -2.41862e-007 2.90187e-006 1.44354e-006 -2.42001e-007 2.90169e-006 1.44392e-006 0.0190215 -0.00120019 -6.13738e-005 -2.41813e-007 2.90192e-006 1.44344e-006 -2.42001e-007 2.90169e-006 1.44392e-006 0.0122795 -0.00324757 -0.000680472 -2.41865e-007 2.90181e-006 1.44361e-006 -2.42001e-007 2.90169e-006 1.44392e-006 -2.01562e-008 -2.54071e-006 -2.16934e-006 -2.42001e-007 2.90169e-006 1.44392e-006 -130.902 -51.6916 -152.779 78.8801 15.509 -97.0429 1.21715 7.7991 -6.13755 -4.08445e-007 -4.82615e-006 -1.96411e-006 133.956 -51.8358 154.382 -77.7104 13.9257 62.5533 0.476665 7.42251 6.01999 8.41677e-007 -1.46188e-006 1.63208e-006 
0.0397108 11.5619 -0.748467 -180 -23.2676 -180 0.887911 18.1346 -0.623941 2.17513 36.2547 -1.70191 2.17513 36.2547 -1.70191 -6.26141e-006 31.9147 2.6578e-006 2.81445e-007 6.52046 -1.74886e-007 -11.8368 -0.746047 -10.3353 -52.4321 3.84584 -5.70009 -50.9482 -24.4384 -71.6668 -35.6448 23.394 11.0052 -1.59028e-015 3.18055e-015 -9.54166e-015 -2.94339e-006 5.7018e-007 -1.06129e-006 -3.18055e-015 7.95139e-015 -6.36111e-015 -1.59028e-015 3.18055e-015 -9.54166e-015 -0.0146305 -9.01423e-005 -6.59689e-008 -6.03751e-007 6.67969e-007 -1.62558e-006 -1.59028e-015 3.18055e-015 -9.54166e-015 -0.018739 -0.00117381 5.85992e-005 6.36111e-015 4.77083e-015 -9.54166e-015 -1.59028e-015 3.18055e-015 -9.54166e-015 -0.0122842 -0.00324944 0.000679319 2.06736e-014 -9.54166e-015 -2.54444e-014 -1.59028e-015 3.18055e-015 -9.54166e-015 -2.94339e-006 5.7018e-007 -1.06129e-006 -3.18055e-015 7.95139e-015 -6.36111e-015 11.8794 -0.740869 10.3746 52.3547 3.83171 5.69427 50.9252 -24.4999 71.6546 35.7217 23.3714 -11.032 3.18055e-015 0 6.36111e-015 -1.76556e-031 3.18055e-015 3.18055e-015 -3.18055e-015 0 3.18055e-015 3.18055e-015 0 6.36111e-015 0.0150031 -8.67944e-005 6.29429e-006 -3.18055e-015 0 -0 3.18055e-015 0 6.36111e-015 0.0189932 -0.00119275 -6.38727e-005 -7.95139e-015 6.36111e-015 -0 3.18055e-015 0 6.36111e-015 0.0122703 -0.00324632 -0.000675887 -3.18055e-014 -1.59028e-014 1.90833e-014 3.18055e-015 0 6.36111e-015 -1.76556e-031 3.18055e-015 3.18055e-015 -3.18055e-015 0 3.18055e-015 -129.442 -55.7446 -151.728 76.0608 18.3649 -96.8398 0.972158 7.46432 -5.90353 -2.47046e-007 5.48157e-007 -6.00854e-007 132.479 -55.9681 153.126 -74.615 14.1734 60.3287 0.613187 7.06187 5.79875 -6.17947e-031 3.18055e-015 1.11319e-014 
